<?xml version="1.0" encoding="UTF-8" standalone="no"?>
<!DOCTYPE svg PUBLIC "-//W3C//DTD SVG 1.1//EN"
 "http://www.w3.org/Graphics/SVG/1.1/DTD/svg11.dtd">
<!-- Generated by graphviz version 12.1.2 (20240928.0832)
 -->
<!-- Title: posts Pages: 1 -->
<svg width="471pt" height="633pt"
 viewBox="0.00 0.00 470.86 632.80" xmlns="http://www.w3.org/2000/svg" xmlns:xlink="http://www.w3.org/1999/xlink">
<g id="graph0" class="graph" transform="scale(1 1) rotate(0) translate(4 628.8)">
<title>posts</title>
<polygon fill="white" stroke="none" points="-4,4 -4,-628.8 466.86,-628.8 466.86,4 -4,4"/>
<!-- posts -->
<g id="node1" class="node">
<title>posts</title>
<polygon fill="#efefef" stroke="none" points="46.2,-543 46.2,-578.6 221.7,-578.6 221.7,-543 46.2,-543"/>
<polygon fill="none" stroke="black" points="46.2,-543 46.2,-578.6 221.7,-578.6 221.7,-543 46.2,-543"/>
<text text-anchor="start" x="53.2" y="-556.4" font-family="Arial Bold" font-size="18.00">posts</text>
<text text-anchor="start" x="90.21" y="-556.4" font-family="Arial" font-size="14.00">    </text>
<text text-anchor="start" x="121.33" y="-556.4" font-family="Arial" font-size="14.00" fill="#666666">[BASE TABLE]</text>
<polygon fill="none" stroke="black" points="46.2,-512.2 46.2,-543 221.7,-543 221.7,-512.2 46.2,-512.2"/>
<text text-anchor="start" x="53.2" y="-524.4" font-family="Arial" font-size="14.00">id </text>
<text text-anchor="start" x="67.99" y="-524.4" font-family="Arial" font-size="14.00" fill="#666666">[bigint unsigned]</text>
<polygon fill="none" stroke="black" points="46.2,-481.4 46.2,-512.2 221.7,-512.2 221.7,-481.4 46.2,-481.4"/>
<text text-anchor="start" x="53.2" y="-493.6" font-family="Arial" font-size="14.00">user_id </text>
<text text-anchor="start" x="103.01" y="-493.6" font-family="Arial" font-size="14.00" fill="#666666">[bigint unsigned]</text>
<polygon fill="none" stroke="black" points="46.2,-450.6 46.2,-481.4 221.7,-481.4 221.7,-450.6 46.2,-450.6"/>
<text text-anchor="start" x="53.2" y="-462.8" font-family="Arial" font-size="14.00">title </text>
<text text-anchor="start" x="78.88" y="-462.8" font-family="Arial" font-size="14.00" fill="#666666">[varchar(255)]</text>
<polygon fill="none" stroke="black" points="46.2,-419.8 46.2,-450.6 221.7,-450.6 221.7,-419.8 46.2,-419.8"/>
<text text-anchor="start" x="53.2" y="-432" font-family="Arial" font-size="14.00">body </text>
<text text-anchor="start" x="87.45" y="-432" font-family="Arial" font-size="14.00" fill="#666666">[text]</text>
<polygon fill="none" stroke="black" points="46.2,-389 46.2,-419.8 221.7,-419.8 221.7,-389 46.2,-389"/>
<text text-anchor="start" x="53.2" y="-401.2" font-family="Arial" font-size="14.00">created_at </text>
<text text-anchor="start" x="123.25" y="-401.2" font-family="Arial" font-size="14.00" fill="#666666">[datetime]</text>
<polygon fill="none" stroke="black" points="46.2,-358.2 46.2,-389 221.7,-389 221.7,-358.2 46.2,-358.2"/>
<text text-anchor="start" x="53.2" y="-370.4" font-family="Arial" font-size="14.00">updated_at </text>
<text text-anchor="start" x="127.16" y="-370.4" font-family="Arial" font-size="14.00" fill="#666666">[datetime]</text>
<polygon fill="none" stroke="black" stroke-width="3" points="44.7,-356.7 44.7,-580.1 223.2,-580.1 223.2,-356.7 44.7,-356.7"/>
</g>
<!-- users -->
<g id="node2" class="node">
<title>users</title>
<polygon fill="#efefef" stroke="none" points="46.21,-197.2 46.21,-232.8 221.69,-232.8 221.69,-197.2 46.21,-197.2"/>
<polygon fill="none" stroke="black" points="46.21,-197.2 46.21,-232.8 221.69,-232.8 221.69,-197.2 46.21,-197.2"/>
<text text-anchor="start" x="53.21" y="-210.6" font-family="Arial Bold" font-size="18.00">users</text>
<text text-anchor="start" x="90.2" y="-210.6" font-family="Arial" font-size="14.00">    </text>
<text text-anchor="start" x="121.32" y="-210.6" font-family="Arial" font-size="14.00" fill="#666666">[BASE TABLE]</text>
<polygon fill="none" stroke="black" points="46.21,-166.4 46.21,-197.2 221.69,-197.2 221.69,-166.4 46.21,-166.4"/>
<text text-anchor="start" x="53.21" y="-178.6" font-family="Arial" font-size="14.00">id </text>
<text text-anchor="start" x="67.99" y="-178.6" font-family="Arial" font-size="14.00" fill="#666666">[bigint unsigned]</text>
<polygon fill="none" stroke="black" points="46.21,-135.6 46.21,-166.4 221.69,-166.4 221.69,-135.6 46.21,-135.6"/>
<text text-anchor="start" x="53.21" y="-147.8" font-family="Arial" font-size="14.00">name </text>
<text text-anchor="start" x="92.12" y="-147.8" font-family="Arial" font-size="14.00" fill="#666666">[varchar(255)]</text>
<polygon fill="none" stroke="black" points="46.21,-104.8 46.21,-135.6 221.69,-135.6 221.69,-104.8 46.21,-104.8"/>
<text text-anchor="start" x="53.21" y="-117" font-family="Arial" font-size="14.00">email </text>
<text text-anchor="start" x="90.55" y="-117" font-family="Arial" font-size="14.00" fill="#666666">[varchar(255)]</text>
<polygon fill="none" stroke="black" points="46.21,-74 46.21,-104.8 221.69,-104.8 221.69,-74 46.21,-74"/>
<text text-anchor="start" x="53.21" y="-86.2" font-family="Arial" font-size="14.00">created_at </text>
<text text-anchor="start" x="123.26" y="-86.2" font-family="Arial" font-size="14.00" fill="#666666">[datetime]</text>
<polygon fill="none" stroke="black" points="46.21,-43.2 46.21,-74 221.69,-74 221.69,-43.2 46.21,-43.2"/>
<text text-anchor="start" x="53.21" y="-55.4" font-family="Arial" font-size="14.00">updated_at </text>
<text text-anchor="start" x="127.17" y="-55.4" font-family="Arial" font-size="14.00" fill="#666666">[datetime]</text>
</g>
<!-- posts&#45;&gt;users -->
<g id="edge1" class="edge">
<title>posts:user_id&#45;&gt;users:id</title>
<path fill="none" stroke="black" d="M232.82,-494.45C292.52,-465.62 289.14,-181.8 222.69,-181.8"/>
<polygon fill="black" stroke="black" points="232.77,-494.46 222.01,-492.34 227.57,-495.67 223.35,-496.65 223.35,-496.65 223.35,-496.65 227.57,-495.67 224.05,-501.11 232.77,-494.46"/>
<text text-anchor="start" x="229.7" y="-506.8" font-family="Arial" font-size="10.00">FOREIGN KEY (user_id) REFERENCES users (id)</text>
</g>
</g>
</svg>
