<?xml version="1.0" encoding="UTF-8" standalone="no"?>
<!DOCTYPE svg PUBLIC "-//W3C//DTD SVG 1.1//EN"
 "http://www.w3.org/Graphics/SVG/1.1/DTD/svg11.dtd">
<!-- Generated by graphviz version 12.1.2 (20240928.0832)
 -->
<!-- Title: app_db Pages: 1 -->
<svg width="673pt" height="627pt"
 viewBox="0.00 0.00 672.83 626.80" xmlns="http://www.w3.org/2000/svg" xmlns:xlink="http://www.w3.org/1999/xlink">
<g id="graph0" class="graph" transform="scale(1 1) rotate(0) translate(4 622.8)">
<title>app_db</title>
<polygon fill="white" stroke="none" points="-4,4 -4,-622.8 668.83,-622.8 668.83,4 -4,4"/>
<!-- posts -->
<g id="node1" class="node">
<title>posts</title>
<polygon fill="#efefef" stroke="none" points="63.66,-540 63.66,-575.6 239.16,-575.6 239.16,-540 63.66,-540"/>
<polygon fill="none" stroke="black" points="63.66,-540 63.66,-575.6 239.16,-575.6 239.16,-540 63.66,-540"/>
<text text-anchor="start" x="70.66" y="-553.4" font-family="Arial Bold" font-size="18.00">posts</text>
<text text-anchor="start" x="107.67" y="-553.4" font-family="Arial" font-size="14.00">    </text>
<text text-anchor="start" x="138.79" y="-553.4" font-family="Arial" font-size="14.00" fill="#666666">[BASE TABLE]</text>
<polygon fill="none" stroke="black" points="63.66,-509.2 63.66,-540 239.16,-540 239.16,-509.2 63.66,-509.2"/>
<text text-anchor="start" x="70.66" y="-521.4" font-family="Arial" font-size="14.00">id </text>
<text text-anchor="start" x="85.44" y="-521.4" font-family="Arial" font-size="14.00" fill="#666666">[bigint unsigned]</text>
<polygon fill="none" stroke="black" points="63.66,-478.4 63.66,-509.2 239.16,-509.2 239.16,-478.4 63.66,-478.4"/>
<text text-anchor="start" x="70.66" y="-490.6" font-family="Arial" font-size="14.00">user_id </text>
<text text-anchor="start" x="120.46" y="-490.6" font-family="Arial" font-size="14.00" fill="#666666">[bigint unsigned]</text>
<polygon fill="none" stroke="black" points="63.66,-447.6 63.66,-478.4 239.16,-478.4 239.16,-447.6 63.66,-447.6"/>
<text text-anchor="start" x="70.66" y="-459.8" font-family="Arial" font-size="14.00">title </text>
<text text-anchor="start" x="96.33" y="-459.8" font-family="Arial" font-size="14.00" fill="#666666">[varchar(255)]</text>
<polygon fill="none" stroke="black" points="63.66,-416.8 63.66,-447.6 239.16,-447.6 239.16,-416.8 63.66,-416.8"/>
<text text-anchor="start" x="70.66" y="-429" font-family="Arial" font-size="14.00">body </text>
<text text-anchor="start" x="104.91" y="-429" font-family="Arial" font-size="14.00" fill="#666666">[text]</text>
<polygon fill="none" stroke="black" points="63.66,-386 63.66,-416.8 239.16,-416.8 239.16,-386 63.66,-386"/>
<text text-anchor="start" x="70.66" y="-398.2" font-family="Arial" font-size="14.00">created_at </text>
<text text-anchor="start" x="140.71" y="-398.2" font-family="Arial" font-size="14.00" fill="#666666">[datetime]</text>
<polygon fill="none" stroke="black" points="63.66,-355.2 63.66,-386 239.16,-386 239.16,-355.2 63.66,-355.2"/>
<text text-anchor="start" x="70.66" y="-367.4" font-family="Arial" font-size="14.00">updated_at </text>
<text text-anchor="start" x="144.62" y="-367.4" font-family="Arial" font-size="14.00" fill="#666666">[datetime]</text>
</g>
<!-- users -->
<g id="node3" class="node">
<title>users</title>
<polygon fill="#efefef" stroke="none" points="63.67,-197.2 63.67,-232.8 239.15,-232.8 239.15,-197.2 63.67,-197.2"/>
<polygon fill="none" stroke="black" points="63.67,-197.2 63.67,-232.8 239.15,-232.8 239.15,-197.2 63.67,-197.2"/>
<text text-anchor="start" x="70.67" y="-210.6" font-family="Arial Bold" font-size="18.00">users</text>
<text text-anchor="start" x="107.66" y="-210.6" font-family="Arial" font-size="14.00">    </text>
<text text-anchor="start" x="138.78" y="-210.6" font-family="Arial" font-size="14.00" fill="#666666">[BASE TABLE]</text>
<polygon fill="none" stroke="black" points="63.67,-166.4 63.67,-197.2 239.15,-197.2 239.15,-166.4 63.67,-166.4"/>
<text text-anchor="start" x="70.67" y="-178.6" font-family="Arial" font-size="14.00">id </text>
<text text-anchor="start" x="85.45" y="-178.6" font-family="Arial" font-size="14.00" fill="#666666">[bigint unsigned]</text>
<polygon fill="none" stroke="black" points="63.67,-135.6 63.67,-166.4 239.15,-166.4 239.15,-135.6 63.67,-135.6"/>
<text text-anchor="start" x="70.67" y="-147.8" font-family="Arial" font-size="14.00">name </text>
<text text-anchor="start" x="109.58" y="-147.8" font-family="Arial" font-size="14.00" fill="#666666">[varchar(255)]</text>
<polygon fill="none" stroke="black" points="63.67,-104.8 63.67,-135.6 239.15,-135.6 239.15,-104.8 63.67,-104.8"/>
<text text-anchor="start" x="70.67" y="-117" font-family="Arial" font-size="14.00">email </text>
<text text-anchor="start" x="108.01" y="-117" font-family="Arial" font-size="14.00" fill="#666666">[varchar(255)]</text>
<polygon fill="none" stroke="black" points="63.67,-74 63.67,-104.8 239.15,-104.8 239.15,-74 63.67,-74"/>
<text text-anchor="start" x="70.67" y="-86.2" font-family="Arial" font-size="14.00">created_at </text>
<text text-anchor="start" x="140.71" y="-86.2" font-family="Arial" font-size="14.00" fill="#666666">[datetime]</text>
<polygon fill="none" stroke="black" points="63.67,-43.2 63.67,-74 239.15,-74 239.15,-43.2 63.67,-43.2"/>
<text text-anchor="start" x="70.67" y="-55.4" font-family="Arial" font-size="14.00">updated_at </text>
<text text-anchor="start" x="144.62" y="-55.4" font-family="Arial" font-size="14.00" fill="#666666">[datetime]</text>
</g>
<!-- posts&#45;&gt;users -->
<g id="edge1" class="edge">
<title>posts:user_id&#45;&gt;users:id</title>
<path fill="none" stroke="black" d="M248.16,-487.57C274.58,-443.59 271.9,-181.8 240.15,-181.8"/>
<polygon fill="black" stroke="black" points="248.31,-487.45 237.66,-490.04 244.1,-490.73 240.68,-493.39 240.68,-493.39 240.68,-493.39 244.1,-490.73 243.19,-497.14 248.31,-487.45"/>
<text text-anchor="start" x="7" y="-503.8" font-family="Arial" font-size="10.00">FOREIGN KEY (user_id) REFERENCES users (id)</text>
</g>
<!-- schema_migrations -->
<g id="node2" class="node">
<title>schema_migrations</title>
<polygon fill="#efefef" stroke="none" points="343.18,-463 343.18,-498.6 621.63,-498.6 621.63,-463 343.18,-463"/>
<polygon fill="none" stroke="black" points="343.18,-463 343.18,-498.6 621.63,-498.6 621.63,-463 343.18,-463"/>
<text text-anchor="start" x="350.18" y="-476.4" font-family="Arial Bold" font-size="18.00">schema_migrations</text>
<text text-anchor="start" x="490.15" y="-476.4" font-family="Arial" font-size="14.00">    </text>
<text text-anchor="start" x="521.26" y="-476.4" font-family="Arial" font-size="14.00" fill="#666666">[BASE TABLE]</text>
<polygon fill="none" stroke="black" points="343.18,-432.2 343.18,-463 621.63,-463 621.63,-432.2 343.18,-432.2"/>
<text text-anchor="start" x="350.18" y="-444.4" font-family="Arial" font-size="14.00">version </text>
<text text-anchor="start" x="399.2" y="-444.4" font-family="Arial" font-size="14.00" fill="#666666">[varchar(128)]</text>
</g>
</g>
</svg>
