<?xml version="1.0" encoding="UTF-8" standalone="no"?>
<!DOCTYPE svg PUBLIC "-//W3C//DTD SVG 1.1//EN"
 "http://www.w3.org/Graphics/SVG/1.1/DTD/svg11.dtd">
<!-- Generated by graphviz version 12.1.2 (20240928.0832)
 -->
<!-- Title: users Pages: 1 -->
<svg width="471pt" height="633pt"
 viewBox="0.00 0.00 470.85 632.80" xmlns="http://www.w3.org/2000/svg" xmlns:xlink="http://www.w3.org/1999/xlink">
<g id="graph0" class="graph" transform="scale(1 1) rotate(0) translate(4 628.8)">
<title>users</title>
<polygon fill="white" stroke="none" points="-4,4 -4,-628.8 466.85,-628.8 466.85,4 -4,4"/>
<!-- users -->
<g id="node1" class="node">
<title>users</title>
<polygon fill="#efefef" stroke="none" points="46.2,-200.2 46.2,-235.8 221.68,-235.8 221.68,-200.2 46.2,-200.2"/>
<polygon fill="none" stroke="black" points="46.2,-200.2 46.2,-235.8 221.68,-235.8 221.68,-200.2 46.2,-200.2"/>
<text text-anchor="start" x="53.2" y="-213.6" font-family="Arial Bold" font-size="18.00">users</text>
<text text-anchor="start" x="90.19" y="-213.6" font-family="Arial" font-size="14.00">    </text>
<text text-anchor="start" x="121.31" y="-213.6" font-family="Arial" font-size="14.00" fill="#666666">[BASE TABLE]</text>
<polygon fill="none" stroke="black" points="46.2,-169.4 46.2,-200.2 221.68,-200.2 221.68,-169.4 46.2,-169.4"/>
<text text-anchor="start" x="53.2" y="-181.6" font-family="Arial" font-size="14.00">id </text>
<text text-anchor="start" x="67.99" y="-181.6" font-family="Arial" font-size="14.00" fill="#666666">[bigint unsigned]</text>
<polygon fill="none" stroke="black" points="46.2,-138.6 46.2,-169.4 221.68,-169.4 221.68,-138.6 46.2,-138.6"/>
<text text-anchor="start" x="53.2" y="-150.8" font-family="Arial" font-size="14.00">name </text>
<text text-anchor="start" x="92.11" y="-150.8" font-family="Arial" font-size="14.00" fill="#666666">[varchar(255)]</text>
<polygon fill="none" stroke="black" points="46.2,-107.8 46.2,-138.6 221.68,-138.6 221.68,-107.8 46.2,-107.8"/>
<text text-anchor="start" x="53.2" y="-120" font-family="Arial" font-size="14.00">email </text>
<text text-anchor="start" x="90.54" y="-120" font-family="Arial" font-size="14.00" fill="#666666">[varchar(255)]</text>
<polygon fill="none" stroke="black" points="46.2,-77 46.2,-107.8 221.68,-107.8 221.68,-77 46.2,-77"/>
<text text-anchor="start" x="53.2" y="-89.2" font-family="Arial" font-size="14.00">created_at </text>
<text text-anchor="start" x="123.25" y="-89.2" font-family="Arial" font-size="14.00" fill="#666666">[datetime]</text>
<polygon fill="none" stroke="black" points="46.2,-46.2 46.2,-77 221.68,-77 221.68,-46.2 46.2,-46.2"/>
<text text-anchor="start" x="53.2" y="-58.4" font-family="Arial" font-size="14.00">updated_at </text>
<text text-anchor="start" x="127.16" y="-58.4" font-family="Arial" font-size="14.00" fill="#666666">[datetime]</text>
<polygon fill="none" stroke="black" stroke-width="3" points="44.7,-44.7 44.7,-237.3 223.18,-237.3 223.18,-44.7 44.7,-44.7"/>
</g>
<!-- posts -->
<g id="node2" class="node">
<title>posts</title>
<polygon fill="#efefef" stroke="none" points="46.19,-546 46.19,-581.6 221.69,-581.6 221.69,-546 46.19,-546"/>
<polygon fill="none" stroke="black" points="46.19,-546 46.19,-581.6 221.69,-581.6 221.69,-546 46.19,-546"/>
<text text-anchor="start" x="53.19" y="-559.4" font-family="Arial Bold" font-size="18.00">posts</text>
<text text-anchor="start" x="90.2" y="-559.4" font-family="Arial" font-size="14.00">    </text>
<text text-anchor="start" x="121.32" y="-559.4" font-family="Arial" font-size="14.00" fill="#666666">[BASE TABLE]</text>
<polygon fill="none" stroke="black" points="46.19,-515.2 46.19,-546 221.69,-546 221.69,-515.2 46.19,-515.2"/>
<text text-anchor="start" x="53.19" y="-527.4" font-family="Arial" font-size="14.00">id </text>
<text text-anchor="start" x="67.98" y="-527.4" font-family="Arial" font-size="14.00" fill="#666666">[bigint unsigned]</text>
<polygon fill="none" stroke="black" points="46.19,-484.4 46.19,-515.2 221.69,-515.2 221.69,-484.4 46.19,-484.4"/>
<text text-anchor="start" x="53.19" y="-496.6" font-family="Arial" font-size="14.00">user_id </text>
<text text-anchor="start" x="103" y="-496.6" font-family="Arial" font-size="14.00" fill="#666666">[bigint unsigned]</text>
<polygon fill="none" stroke="black" points="46.19,-453.6 46.19,-484.4 221.69,-484.4 221.69,-453.6 46.19,-453.6"/>
<text text-anchor="start" x="53.19" y="-465.8" font-family="Arial" font-size="14.00">title </text>
<text text-anchor="start" x="78.87" y="-465.8" font-family="Arial" font-size="14.00" fill="#666666">[varchar(255)]</text>
<polygon fill="none" stroke="black" points="46.19,-422.8 46.19,-453.6 221.69,-453.6 221.69,-422.8 46.19,-422.8"/>
<text text-anchor="start" x="53.19" y="-435" font-family="Arial" font-size="14.00">body </text>
<text text-anchor="start" x="87.44" y="-435" font-family="Arial" font-size="14.00" fill="#666666">[text]</text>
<polygon fill="none" stroke="black" points="46.19,-392 46.19,-422.8 221.69,-422.8 221.69,-392 46.19,-392"/>
<text text-anchor="start" x="53.19" y="-404.2" font-family="Arial" font-size="14.00">created_at </text>
<text text-anchor="start" x="123.24" y="-404.2" font-family="Arial" font-size="14.00" fill="#666666">[datetime]</text>
<polygon fill="none" stroke="black" points="46.19,-361.2 46.19,-392 221.69,-392 221.69,-361.2 46.19,-361.2"/>
<text text-anchor="start" x="53.19" y="-373.4" font-family="Arial" font-size="14.00">updated_at </text>
<text text-anchor="start" x="127.15" y="-373.4" font-family="Arial" font-size="14.00" fill="#666666">[datetime]</text>
</g>
<!-- posts&#45;&gt;users -->
<g id="edge1" class="edge">
<title>posts:user_id&#45;&gt;users:id</title>
<path fill="none" stroke="black" d="M232.81,-497.45C292.51,-468.62 289.13,-184.8 222.68,-184.8"/>
<polygon fill="black" stroke="black" points="232.76,-497.46 222,-495.34 227.56,-498.67 223.34,-499.65 223.34,-499.65 223.34,-499.65 227.56,-498.67 224.04,-504.11 232.76,-497.46"/>
<text text-anchor="start" x="229.69" y="-509.8" font-family="Arial" font-size="10.00">FOREIGN KEY (user_id) REFERENCES users (id)</text>
</g>
</g>
</svg>
